<svg xmlns="http://www.w3.org/2000/svg" viewBox="0 0 32 32" width="32" height="32">
  <rect width="32" height="32" rx="9" fill="#15803d"/>
  <g transform="translate(4 4)" fill="none" stroke="#ffffff" stroke-width="1.7" stroke-linecap="round" stroke-linejoin="round">
    <path d="M6 13.5C4.34 13.5 3 12.16 3 10.5c0-1.5 1.1-2.74 2.54-2.96A3.5 3.5 0 0 1 12 6.06 3.5 3.5 0 0 1 18.46 7.5C19.9 7.72 21 8.96 21 10.5c0 1.66-1.34 3-3 3"/>
    <path d="M6 13.5h12v4.5a1.5 1.5 0 0 1-1.5 1.5h-9A1.5 1.5 0 0 1 6 18z"/>
  </g>
</svg>
